<svg xmlns="http://www.w3.org/2000/svg" viewBox="0 0 750 500"><g id="freepik--background-complete--inject-115"><path d="M249.18,129.64H122.54V43H249.18Zm-125.64-1H248.18V44H123.54Z" style="fill:#ebebeb"></path><path d="M132.44,48.58a2.52,2.52,0,1,1-2.52-2.52A2.52,2.52,0,0,1,132.44,48.58Z" style="fill:#a6a6a6"></path><path d="M142.73,48.58a2.52,2.52,0,1,1-2.52-2.52A2.51,2.51,0,0,1,142.73,48.58Z" style="fill:#ebebeb"></path><path d="M153,48.58a2.52,2.52,0,1,1-2.52-2.52A2.52,2.52,0,0,1,153,48.58Z" style="fill:#3669A7"></path><rect x="123.04" y="53.02" width="125.64" height="1" style="fill:#ebebeb"></rect><polygon points="96.1 359.21 95.1 359.21 95.1 233.71 68.37 197.23 68.37 128.73 69.37 128.73 69.37 196.9 96.1 233.38 96.1 359.21" style="fill:#ebebeb"></polygon><path d="M68.87,129.27a2.88,2.88,0,1,1,2.87-2.87A2.88,2.88,0,0,1,68.87,129.27Zm0-4.75a1.88,1.88,0,1,0,1.87,1.88A1.88,1.88,0,0,0,68.87,124.52Z" style="fill:#ebebeb"></path><polygon points="89.21 359.21 88.21 359.21 88.21 238.12 61.48 201.64 61.48 153.73 62.48 153.73 62.48 201.31 89.21 237.79 89.21 359.21" style="fill:#ebebeb"></polygon><path d="M62,154.27a2.88,2.88,0,1,1,2.88-2.88A2.88,2.88,0,0,1,62,154.27Zm0-4.75a1.88,1.88,0,1,0,1.88,1.87A1.87,1.87,0,0,0,62,149.52Z" style="fill:#ebebeb"></path><rect x="101.73" y="192.8" width="1" height="166.41" style="fill:#ebebeb"></rect><path d="M102.23,193.3a2.88,2.88,0,1,1,2.88-2.87A2.88,2.88,0,0,1,102.23,193.3Zm0-4.75a1.88,1.88,0,1,0,1.88,1.88A1.88,1.88,0,0,0,102.23,188.55Z" style="fill:#ebebeb"></path><polygon points="109.12 359.21 108.12 359.21 108.12 274.51 108.17 274.4 126.26 240.28 126.26 179.04 127.26 179.04 127.26 240.53 109.12 274.76 109.12 359.21" style="fill:#ebebeb"></polygon><path d="M126.76,179.54a2.88,2.88,0,1,1,2.88-2.87A2.88,2.88,0,0,1,126.76,179.54Zm0-4.75a1.88,1.88,0,1,0,1.88,1.88A1.88,1.88,0,0,0,126.76,174.79Z" style="fill:#ebebeb"></path><polygon points="115.47 359.21 114.47 359.21 114.47 278.16 114.53 278.05 135.86 240.32 135.86 200.04 136.86 200.04 136.86 240.58 115.47 278.43 115.47 359.21" style="fill:#ebebeb"></polygon><path d="M136.36,200.54a2.88,2.88,0,1,1,2.87-2.88A2.88,2.88,0,0,1,136.36,200.54Zm0-4.75a1.88,1.88,0,1,0,1.87,1.87A1.88,1.88,0,0,0,136.36,195.79Z" style="fill:#ebebeb"></path><polygon points="658.51 359.21 657.51 359.21 657.51 293.38 657.61 293.25 684.24 256.9 684.24 218.73 685.24 218.73 685.24 257.23 685.14 257.36 658.51 293.71 658.51 359.21" style="fill:#ebebeb"></polygon><path d="M684.74,219.27a2.88,2.88,0,1,1,2.88-2.87A2.88,2.88,0,0,1,684.74,219.27Zm0-4.75a1.88,1.88,0,1,0,1.88,1.88A1.88,1.88,0,0,0,684.74,214.52Z" style="fill:#ebebeb"></path><polygon points="665.4 359.21 664.4 359.21 664.4 297.79 691.13 261.31 691.13 243.73 692.13 243.73 692.13 261.64 692.03 261.77 665.4 298.12 665.4 359.21" style="fill:#ebebeb"></polygon><path d="M691.63,244.27a2.88,2.88,0,1,1,2.87-2.88A2.88,2.88,0,0,1,691.63,244.27Zm0-4.75a1.88,1.88,0,1,0,1.87,1.87A1.88,1.88,0,0,0,691.63,239.52Z" style="fill:#ebebeb"></path><rect x="650.88" y="252.8" width="1" height="106.41" style="fill:#ebebeb"></rect><path d="M651.38,253.3a2.88,2.88,0,1,1,2.87-2.87A2.88,2.88,0,0,1,651.38,253.3Zm0-4.75a1.88,1.88,0,1,0,1.87,1.88A1.88,1.88,0,0,0,651.38,248.55Z" style="fill:#ebebeb"></path><polygon points="645.49 359.21 644.49 359.21 644.49 304.76 626.35 270.53 626.35 209.04 627.35 209.04 627.35 270.28 645.49 304.51 645.49 359.21" style="fill:#ebebeb"></polygon><path d="M626.84,209.54a2.88,2.88,0,1,1,2.88-2.87A2.88,2.88,0,0,1,626.84,209.54Zm0-4.75a1.88,1.88,0,1,0,1.88,1.88A1.88,1.88,0,0,0,626.84,204.79Z" style="fill:#ebebeb"></path><polygon points="639.14 359.21 638.14 359.21 638.14 308.43 616.75 270.58 616.75 230.04 617.75 230.04 617.75 270.32 639.14 308.16 639.14 359.21" style="fill:#ebebeb"></polygon><path d="M617.25,230.54a2.88,2.88,0,1,1,2.87-2.88A2.88,2.88,0,0,1,617.25,230.54Zm0-4.75a1.88,1.88,0,1,0,1.87,1.87A1.88,1.88,0,0,0,617.25,225.79Z" style="fill:#ebebeb"></path><path d="M67.5,125.61a3.16,3.16,0,0,1,3.3,0l.85.49.87.44a3.12,3.12,0,0,1,1.84,2.73l.13,4.06,13.23-.41-.12-4.06A3.13,3.13,0,0,1,89.26,126a18.07,18.07,0,0,0,1.68-1,3.15,3.15,0,0,1,3.29-.21l3.57,1.91L104.06,115l-3.58-1.91a3.17,3.17,0,0,1-1.64-2.86,18.52,18.52,0,0,0-.06-2,3.12,3.12,0,0,1,1.46-3l3.45-2.15-7-11.25-3.47,2.15a3.14,3.14,0,0,1-3.29,0c-.28-.17-.56-.33-.85-.48s-.57-.3-.87-.44a3.14,3.14,0,0,1-1.84-2.74l-.13-4.07L73,86.73l.13,4.06a3.13,3.13,0,0,1-1.66,2.85c-.58.32-1.14.67-1.68,1a3.15,3.15,0,0,1-3.29.22L63,93,56.7,104.65l3.57,1.92a3.13,3.13,0,0,1,1.64,2.85q0,1,.06,2a3.13,3.13,0,0,1-1.46,3l-3.44,2.13,7,11.25Zm3.31-20.9a10.85,10.85,0,1,1,4.44,14.69A10.86,10.86,0,0,1,70.81,104.71Z" style="fill:#ebebeb"></path><path d="M674.24,225.29a2.21,2.21,0,0,1,2-1.08c.23,0,.46,0,.69,0s.46,0,.68,0a2.2,2.2,0,0,1,2,1.08l1.43,2.47,8-4.64-1.42-2.46a2.21,2.21,0,0,1,.08-2.32,12.71,12.71,0,0,0,.69-1.19,2.21,2.21,0,0,1,2-1.22h2.84v-9.28h-2.84a2.21,2.21,0,0,1-2-1.22,12.71,12.71,0,0,0-.69-1.19,2.19,2.19,0,0,1-.08-2.31l1.42-2.47-8-4.64-1.43,2.48a2.19,2.19,0,0,1-2,1.07h-1.37a2.17,2.17,0,0,1-2-1.08l-1.42-2.47-8,4.64,1.42,2.46a2.19,2.19,0,0,1-.08,2.31q-.37.59-.69,1.2a2.21,2.21,0,0,1-2,1.22h-2.84v9.28h2.84a2.21,2.21,0,0,1,2,1.22q.32.61.69,1.2a2.19,2.19,0,0,1,.08,2.31l-1.42,2.46,8,4.64Zm-4.88-14a7.6,7.6,0,1,1,7.61,7.6A7.61,7.61,0,0,1,669.36,211.29Z" style="fill:#ebebeb"></path><path d="M107.38,137.31a2.22,2.22,0,0,1,1.08,2.05c0,.23,0,.46,0,.68s0,.46,0,.69a2.2,2.2,0,0,1-1.07,2l-2.47,1.42,4.63,8,2.47-1.42a2.19,2.19,0,0,1,2.31.08q.58.38,1.2.69a2.21,2.21,0,0,1,1.22,2v2.84H126v-2.84a2.21,2.21,0,0,1,1.22-2q.62-.32,1.2-.69a2.19,2.19,0,0,1,2.31-.08l2.47,1.42,4.63-8-2.47-1.43a2.19,2.19,0,0,1-1.08-2c0-.23,0-.46,0-.69s0-.45,0-.68a2.23,2.23,0,0,1,1.08-2.05l2.47-1.42-4.63-8-2.46,1.42a2.19,2.19,0,0,1-2.31-.08,13,13,0,0,0-1.21-.69,2.21,2.21,0,0,1-1.22-2v-2.84h-9.27v2.84a2.21,2.21,0,0,1-1.22,2,13,13,0,0,0-1.21.69,2.19,2.19,0,0,1-2.31.08l-2.46-1.42-4.63,8Zm14-4.87a7.6,7.6,0,1,1-7.59,7.6A7.6,7.6,0,0,1,121.38,132.44Z" style="fill:#ebebeb"></path></g><g id="freepik--Floor--inject-115"><path d="M715.21,358.83l-86.37-.19-259.09-.2-259.09.2-86.36.19a.25.25,0,0,0-.25.25.25.25,0,0,0,.25.25l86.36.2,259.09.2,259.09-.2,86.37-.2a.25.25,0,0,0,.25-.25A.26.26,0,0,0,715.21,358.83Z" style="fill:#263238"></path></g><g id="freepik--Device--inject-115"><rect x="138.36" y="63.91" width="471.59" height="315.46" style="fill:#ebebeb"></rect><rect x="141.79" y="67.76" width="464.73" height="307.76" style="fill:#263238"></rect><rect x="76.94" y="403.03" width="594.43" height="21.65" style="fill:#dbdbdb"></rect><polygon points="76.94 403.03 138.37 379.37 609.95 379.37 671.38 403.03 76.94 403.03" style="fill:#ebebeb"></polygon><polygon points="143.85 394.64 183.49 379.37 564.83 379.37 604.47 394.64 143.85 394.64" style="fill:#263238"></polygon><rect x="168.06" y="91.14" width="412.21" height="261" style="fill:#fff"></rect><rect x="167.71" y="91.14" width="412.56" height="10.04" style="fill:#455a64"></rect><path d="M175.69,96.16a2.49,2.49,0,1,1-2.49-2.49A2.5,2.5,0,0,1,175.69,96.16Z" style="fill:#c7c7c7"></path><path d="M185.86,96.16a2.49,2.49,0,1,1-2.49-2.49A2.49,2.49,0,0,1,185.86,96.16Z" style="fill:#fff"></path><path d="M196,96.16a2.49,2.49,0,1,1-2.49-2.49A2.49,2.49,0,0,1,196,96.16Z" style="fill:#3669A7"></path><path d="M374.59,221.55a10.68,10.68,0,1,0-10.74-10.62A10.66,10.66,0,0,0,374.59,221.55Zm-9.44-10.62a9.38,9.38,0,1,1,9.43,9.32A9.37,9.37,0,0,1,365.15,210.93Zm9.44,10.62a10.68,10.68,0,1,0-10.74-10.62A10.66,10.66,0,0,0,374.59,221.55Zm-9.44-10.62a9.38,9.38,0,1,1,9.43,9.32A9.37,9.37,0,0,1,365.15,210.93Zm9.44,10.62a10.68,10.68,0,1,0-10.74-10.62A10.66,10.66,0,0,0,374.59,221.55Zm-9.44-10.62a9.38,9.38,0,1,1,9.43,9.32A9.37,9.37,0,0,1,365.15,210.93Zm9.5,22.45A22.51,22.51,0,1,0,352,211,22.51,22.51,0,0,0,374.65,233.38ZM362.19,211a12.34,12.34,0,1,1,12.4,12.26A12.35,12.35,0,0,1,362.19,211Zm1.66,0a10.68,10.68,0,1,0,10.61-10.74A10.68,10.68,0,0,0,363.85,210.93Zm1.3,0a9.38,9.38,0,1,1,9.43,9.32A9.37,9.37,0,0,1,365.15,210.93Zm9.44,10.62a10.68,10.68,0,1,0-10.74-10.62A10.66,10.66,0,0,0,374.59,221.55Zm-9.44-10.62a9.38,9.38,0,1,1,9.43,9.32A9.37,9.37,0,0,1,365.15,210.93Zm9.44,10.62a10.68,10.68,0,1,0-10.74-10.62A10.66,10.66,0,0,0,374.59,221.55Zm-9.44-10.62a9.38,9.38,0,1,1,9.43,9.32A9.37,9.37,0,0,1,365.15,210.93Z" style="fill:#3669A7"></path><polygon points="370.07 189.32 378.73 189.27 378.21 183.15 370.51 183.19 370.07 189.32" style="fill:#3669A7"></polygon><polygon points="386.56 192.14 392.72 198.23 396.68 193.53 391.21 188.12 386.56 192.14" style="fill:#3669A7"></polygon><polygon points="396.23 205.79 396.28 214.45 402.4 213.94 402.36 206.24 396.23 205.79" style="fill:#3669A7"></polygon><polygon points="393.41 222.29 387.33 228.44 392.02 232.41 397.43 226.93 393.41 222.29" style="fill:#3669A7"></polygon><polygon points="379.76 231.95 371.1 232 371.62 238.13 379.31 238.08 379.76 231.95" style="fill:#3669A7"></polygon><polygon points="363.27 229.13 357.11 223.05 353.14 227.75 358.62 233.16 363.27 229.13" style="fill:#3669A7"></polygon><polygon points="353.6 215.48 353.55 206.83 347.43 207.34 347.47 215.04 353.6 215.48" style="fill:#3669A7"></polygon><polygon points="356.42 198.99 362.5 192.84 357.81 188.87 352.4 194.34 356.42 198.99" style="fill:#3669A7"></polygon><path d="M481.49,290.28h-213V276.79h213ZM269,289.78H481V277.29H269Z" style="fill:#3669A7"></path><rect x="271.23" y="279.51" width="4.82" height="8.06" style="fill:#3669A7"></rect><rect x="277.87" y="279.51" width="4.82" height="8.06" style="fill:#3669A7"></rect><rect x="284.52" y="279.51" width="4.82" height="8.06" style="fill:#3669A7"></rect><rect x="291.17" y="279.51" width="4.82" height="8.06" style="fill:#3669A7"></rect><rect x="297.82" y="279.51" width="4.82" height="8.06" style="fill:#3669A7"></rect><rect x="304.47" y="279.51" width="4.82" height="8.06" style="fill:#3669A7"></rect><rect x="311.12" y="279.51" width="4.82" height="8.06" style="fill:#3669A7"></rect><rect x="317.76" y="279.51" width="4.82" height="8.06" style="fill:#3669A7"></rect><rect x="324.41" y="279.51" width="4.82" height="8.06" style="fill:#3669A7"></rect><rect x="331.06" y="279.51" width="4.82" height="8.06" style="fill:#3669A7"></rect><rect x="337.71" y="279.51" width="4.82" height="8.06" style="fill:#3669A7"></rect><rect x="344.36" y="279.51" width="4.82" height="8.06" style="fill:#3669A7"></rect><text transform="translate(340.51 313.95)" style="font-size:15.232080459594727px;fill:#263238;font-family:Raleway-SemiBold, Raleway;font-weight:600">UP<tspan x="20.94" y="0" style="letter-spacing:-0.024971709856640316em">D</tspan><tspan x="31.47" y="0" style="letter-spacing:-0.06997848859697793em">A</tspan><tspan x="40.68" y="0">TE...</tspan></text><circle cx="374.72" cy="168.02" r="4.71" style="fill:#3669A7"></circle><path d="M347.41,174.12a4.48,4.48,0,1,0,4.48-4.48A4.49,4.49,0,0,0,347.41,174.12Z" style="fill:#3669A7;opacity:0.9"></path><path d="M333.37,189.68a4.25,4.25,0,1,0,4.24-4.25A4.25,4.25,0,0,0,333.37,189.68Z" style="fill:#3669A7;opacity:0.8"></path><circle cx="332.73" cy="210.58" r="4.02" style="fill:#3669A7;opacity:0.7000000000000001"></circle><path d="M333.47,230.3a3.79,3.79,0,1,0,3.78-3.78A3.78,3.78,0,0,0,333.47,230.3Z" style="fill:#3669A7;opacity:0.6000000000000001"></path><path d="M347.53,246.44a3.55,3.55,0,1,0,3.55-3.56A3.55,3.55,0,0,0,347.53,246.44Z" style="fill:#3669A7;opacity:0.5"></path><path d="M371.55,253.18a3.32,3.32,0,1,0,3.32-3.32A3.32,3.32,0,0,0,371.55,253.18Z" style="fill:#3669A7;opacity:0.4"></path><path d="M395.88,245.92a3.09,3.09,0,1,0,3.09-3.09A3.09,3.09,0,0,0,395.88,245.92Z" style="fill:#3669A7;opacity:0.30000000000000004"></path><path d="M409.84,229a2.86,2.86,0,1,0,2.86-2.86A2.86,2.86,0,0,0,409.84,229Z" style="fill:#3669A7;opacity:0.2"></path><path d="M414.47,210.16a2.63,2.63,0,1,0,2.63-2.63A2.62,2.62,0,0,0,414.47,210.16Z" style="fill:#3669A7;opacity:0.1"></path><circle cx="410.29" cy="185.91" r="2.4" style="fill:#3669A7;opacity:0.05"></circle><circle cx="393.98" cy="172.27" r="2.17" style="fill:#3669A7;opacity:0.01"></circle></g><g id="freepik--Arrows--inject-115"><path d="M593.38,61.12,587,54.47a39.57,39.57,0,0,1,66.74,25.75l-9.16.68a30.38,30.38,0,0,0-51.24-19.78Z" style="fill:#3669A7"></path><polygon points="636.3 74.79 645.64 98.67 661.65 78.66 636.3 74.79" style="fill:#3669A7"></polygon><g style="opacity:0.2"><path d="M593.38,61.12,587,54.47a39.57,39.57,0,0,1,66.74,25.75l-9.16.68a30.38,30.38,0,0,0-51.24-19.78Z"></path><polygon points="636.3 74.79 645.64 98.67 661.65 78.66 636.3 74.79"></polygon></g><path d="M597.82,116.54A39.78,39.78,0,0,1,576,84l9.16-.68a30.38,30.38,0,0,0,52.58,18.41l6.74,6.24A39.77,39.77,0,0,1,597.82,116.54Z" style="fill:#3669A7"></path><polygon points="593.44 89.44 584.11 65.56 568.09 85.58 593.44 89.44" style="fill:#3669A7"></polygon></g><g id="freepik--Shadow--inject-115"><ellipse cx="474.03" cy="452.8" rx="96.83" ry="9.45" style="fill:#ebebeb"></ellipse></g><g id="freepik--Character--inject-115"><path d="M490.82,454.59c2.16-.79,51-39.86,52-42.53.35-1-4.92-8.46-11.55-17.28-1.43-1.9-2.92-3.86-4.45-5.84-9.88-12.87-20.66-26.3-20.66-26.3l-32.77,26,21.56,25.58,4.73,5.62s-12,23.32-12.72,26.36S488.65,455.38,490.82,454.59Z" style="fill:#f7a9a0"></path><path d="M490.82,454.59c2.16-.79,51-39.86,52-42.53.42-1.23-7.45-12-16-23.12l-31.87,25.32,4.73,5.62s-12,23.32-12.72,26.36S488.65,455.38,490.82,454.59Z" style="fill:#fff"></path><path d="M490.82,454.59c2.16-.79,51-39.86,52-42.53.35-1-4.92-8.46-11.55-17.28l-31.59,25.1s-12,23.32-12.72,26.36S488.65,455.38,490.82,454.59Z" style="fill:#3669A7"></path><path d="M490,452.08c8-6.75,41.07-33.22,49.52-39.28.07-.05.1,0,0,.05-7.81,6.86-41.07,33.06-49.46,39.36C489.89,452.34,489.79,452.22,490,452.08Z" style="fill:#263238"></path><path d="M488.67,442a8.43,8.43,0,0,1,6.5-1.92,8.19,8.19,0,0,1,5.32,2.91c0,.05-.05.13-.09.08a9.74,9.74,0,0,0-11.65-1C488.68,442.12,488.6,442,488.67,442Z" style="fill:#263238"></path><path d="M497.12,423.23c3.25-2.66,8-4.55,12.16-3.49.16,0,.1.27,0,.3a58,58,0,0,0-11.85,3.64A.27.27,0,0,1,497.12,423.23Z" style="fill:#263238"></path><path d="M495.38,426.24c3.24-2.66,8-4.55,12.15-3.49.16,0,.1.27,0,.3a57.79,57.79,0,0,0-11.85,3.64A.27.27,0,0,1,495.38,426.24Z" style="fill:#263238"></path><path d="M493.64,429.25c3.24-2.66,8-4.55,12.15-3.49.16,0,.1.27,0,.3a58.18,58.18,0,0,0-11.85,3.64A.26.26,0,0,1,493.64,429.25Z" style="fill:#263238"></path><path d="M491.89,432.26c3.25-2.66,8-4.54,12.16-3.49.16,0,.1.27,0,.3a58.18,58.18,0,0,0-11.85,3.64A.27.27,0,0,1,491.89,432.26Z" style="fill:#263238"></path><path d="M531.17,406.68c3.69-2.93,8.25,2.8,4.56,5.74S527.48,409.62,531.17,406.68Z" style="fill:#fff"></path><path d="M490.69,421.91c3.59.87,7.44.15,11.06-.1a.5.5,0,0,0,.38-.73.11.11,0,0,0,0-.18,22,22,0,0,0-9.68-6c-2.17-.61-5.33-.28-5.89,2.42S488.59,421.4,490.69,421.91Zm-2.32-2.59c-2.53-3.83,2.88-3.67,4.46-3.15a24.08,24.08,0,0,1,3,1.25c2,1,3.84,2.22,5.74,3.39-1.79,0-3.56.18-5.35.26C494.05,421.16,489.76,421.43,488.37,419.32Z" style="fill:#263238"></path><path d="M512.13,409.5c-2-1.94-4.78-.45-6.24,1.27a22,22,0,0,0-4.71,10.37.11.11,0,0,0,.12.13.52.52,0,0,0,.73.4c3.15-1.81,6.74-3.35,9.25-6.07C512.74,414,514,411.33,512.13,409.5ZM506.25,418c-1.53.93-3.1,1.78-4.59,2.76a64.73,64.73,0,0,1,2.88-6,24,24,0,0,1,1.77-2.69c1-1.3,5.43-4.45,5.46.13C511.78,414.68,508.07,416.85,506.25,418Z" style="fill:#263238"></path><path d="M440.26,338.61c2.24,17,44.21,66.18,49.05,71.82l1.11,1.28L525.13,385l-.4-.52-30.57-40,91.18,9.17-23.62-26.62s-2.81,1.62-8.65.77c-20.12-2.95-76.48-19.47-87.18-19C452.09,309.35,438.2,323,440.26,338.61Z" style="fill:#37474f"></path><path d="M483.19,329.62a41.25,41.25,0,0,1,3.15,4c1.08,1.42,2.18,2.82,3.26,4.24l0,0c-.19-.41-.38-.83-.58-1.24-.68-1.41-1.23-2.87-2-4.22a.07.07,0,1,1,.13-.07c.82,1.34,1.78,2.61,2.49,4,.34.66.65,1.33.95,2,.16.38.32.75.47,1.13a4.44,4.44,0,0,1,.19.55c.49.65,1,1.31,1.43,2,1,1.49,1.94,3.06,3,4.54,0,.08-.07.15-.13.08-1-1.39-2.24-2.69-3.31-4.07s-2.12-2.85-3.14-4.3-2-2.86-3-4.28a40.61,40.61,0,0,1-3-4.39C483.07,329.64,483.14,329.58,483.19,329.62Z" style="fill:#263238"></path><path d="M571.55,289.25c-5,19.6-14.94,43-19,46.75-5.17,4.73-38.87,12.83-40.54,13-4.15.32-11.72-29.65-7.3-30.18,6.73-.81,31.13-1.55,32.63-3s12.15-14.26,23.08-28.66C567.93,277.15,574.65,277.08,571.55,289.25Z" style="fill:#f7a9a0"></path><path d="M515.32,347.44a89.92,89.92,0,0,1-11.93,4.74c-3.25.86-12.67,3.08-14-.41-.89-2.37,4.49-4.33,8.27-5.8,2-.77,4.47-2.78,3.92-4.06-1-2.24-6.09-.13-9.47,1.73-6.54,3.59-15.3,10.13-19.16,6.76-1.46-1.27.32-3.48,2.91-5.63-4.17,2.48-8.6,4.48-10.28,3.13-1-.77-1-1.79-.41-2.95a2.86,2.86,0,0,1-3.16-.57c-1.3-1.43-.6-3.47.91-5.55a1.59,1.59,0,0,1-1.19-.83c-2.72-4.37,11.72-16.41,16.64-17.45A124.1,124.1,0,0,1,508,318.48C513.58,323.13,515.34,347.43,515.32,347.44Z" style="fill:#f7a9a0"></path><path d="M494.48,333.68a24.33,24.33,0,0,0-9.69,3.47c-3.71,2.32-6.2,5.08-9.33,7.85-.08.07,0,.2.11.13,1.49-1.32,7.66-6.25,9.25-7.36a23.23,23.23,0,0,1,9.67-4S494.51,333.68,494.48,333.68Z" style="fill:#263238"></path><path d="M491.94,327.51a58.16,58.16,0,0,0-11.26,3.6c-3.89,1.87-7,5-10,8q-2.73,2.7-5.34,5.53c-.07.08,0,.21.11.13q4.62-4.67,9.51-9a30.83,30.83,0,0,1,10.34-6.17c2.19-.78,4.43-1.38,6.66-2C492,327.57,492,327.5,491.94,327.51Z" style="fill:#263238"></path><path d="M488,322.07c-3.7.67-6.92,1.24-10.22,3.13-4.37,2.5-8.64,6.8-10.14,8.32-1.65,1.68-3.24,3.42-4.81,5.18-.07.07.06.18.12.11A121.12,121.12,0,0,1,474.46,328a24.08,24.08,0,0,1,6.37-3.93,43.51,43.51,0,0,1,7.2-1.95S488,322.07,488,322.07Z" style="fill:#263238"></path><path d="M510.38,317.31l9.51,32.87s28.07-7.29,33.3-12.66S568.5,304,571.6,290.32s-3.87-13.51-10.47-5-23,29.15-23.91,29.59S510.38,317.31,510.38,317.31Z" style="fill:#3669A7"></path><path d="M522.92,335.76c-1.16-3.88-2.34-7.75-3.36-11.67-.57-2.23-1.16-4.45-1.71-6.68,0-.09.12-.13.15-.05,1.31,3.84,2.62,7.7,3.76,11.61s2.29,7.76,3.37,11.66c.62,2.21,1.16,4.44,1.64,6.69a0,0,0,0,1-.08,0C525.25,343.55,524.08,339.66,522.92,335.76Z" style="fill:#263238"></path><path d="M522.11,316.39l.23,0a2.43,2.43,0,0,0,0,.27,12.58,12.58,0,0,0,.82,4.3,13.24,13.24,0,0,0,2.25,3.77,9.36,9.36,0,0,0,3.46,2.64,13.48,13.48,0,0,0,4.26,1.07,24.08,24.08,0,0,0,3.5.1h.27l.65,0c1.47-.08,2.94-.25,4.42-.43a84,84,0,0,1,8.84-.9,16.44,16.44,0,0,1,4.42.45,8.31,8.31,0,0,1,3,1.41l-.06.13a8,8,0,0,0-3-1.4,16.5,16.5,0,0,0-4.38-.43,87.77,87.77,0,0,0-8.83.91c-1.47.18-2.94.35-4.42.45l-.43,0h-.25a22.77,22.77,0,0,1-3.78-.07,13.58,13.58,0,0,1-4.32-1.08,9.85,9.85,0,0,1-3.55-2.69,13.63,13.63,0,0,1-2.29-3.83,13.09,13.09,0,0,1-.61-2.14,15.31,15.31,0,0,1-.22-2.23A2.26,2.26,0,0,1,522.11,316.39Zm9.28,3.73a15.36,15.36,0,0,0,1.69,4.11,15.79,15.79,0,0,0,2.71,3.53c.27.26.55.51.84.76a1.23,1.23,0,0,0,.25.17,12.73,12.73,0,0,0,2.57,1.61,23,23,0,0,0,4.21,1.46c2.87.72,5.82,1.14,8.56,2.28a13.62,13.62,0,0,1,2.59,1.36.9.9,0,0,1,.07-.11,14.44,14.44,0,0,0-2.61-1.38c-2.76-1.15-5.72-1.57-8.58-2.3a21.7,21.7,0,0,1-4.17-1.46,13.89,13.89,0,0,1-2.39-1.46,2,2,0,0,1-.23-.18c-.35-.27-.67-.57-1-.87a16.72,16.72,0,0,1-4.35-7.57,17,17,0,0,1-.44-4.38.17.17,0,0,1,0-.07h-.21v.06A16.18,16.18,0,0,0,531.39,320.12Z" style="fill:#fff"></path><path d="M518.94,346.91l.95,3.27s28.08-7.29,33.3-12.65S568.5,304,571.6,290.32c2.26-10-.85-12.61-5.27-9.95C554.38,296.81,531.85,328,518.94,346.91Z" style="opacity:0.1"></path><path d="M603.77,353.94c-.16.16-59.49-12.84-60-13.53-.77-1,9.83-45.59,21-58.91,2.8-3.33,11.71-3.1,15.69.26C600.2,298.42,604.33,353.36,603.77,353.94Z" style="fill:#3669A7"></path><path d="M585.32,285.13c12.3,9.46,44.73,47.72,37.95,56.8S570,348,556.48,344.08c-4-1.16,6.32-26.82,10.62-28.09,3.58-1.05,23.7,4.4,24.06,3.24.41-1.32-4-9.8-11.23-25.3C571.64,276.06,579.89,281,585.32,285.13Z" style="fill:#f7a9a0"></path><path d="M547.29,311.55c-9.29.23-11.64,1.72-19.59-2.24-5.22-2.6-9.12-.39-5.57,4.53,5.79,8,17.85,10.25,22.25,9.82Z" style="fill:#f7a9a0"></path><path d="M572.86,316.3s-11.14-4-21.07-4.71c-6.86-.5-21.92.07-33.63,17-2.77,4-3.89,11.68,3,6.79,4.91-3.48,7-7.17,10.2-8.67,0,0-.26,9.93,3.86,12.56a90.64,90.64,0,0,0,11.26,6.09,20.32,20.32,0,0,0,1.33-2s4.08,2.09,10.81.31Z" style="fill:#f7a9a0"></path><path d="M545.16,312.16c-2.88,2.17-8.92,6.86-12.52,12.42-4,6.18-10,19.15-5.45,22.06,3.37,2.13,6.11-2.62,6.11-2.62s-1.37,5.89,2.09,7.15c3.16,1.15,5.06-2.66,5.06-2.66s-.22,3.72,3,4.24c3.91.62,3.72-7.26,8.23-10.05C552.72,342.07,545.16,312.16,545.16,312.16Z" style="fill:#f7a9a0"></path><path d="M539.87,327.72a29.28,29.28,0,0,0-6.64,16.16c0,.16.1.24.14.11a72.23,72.23,0,0,1,6.56-16.23A0,0,0,0,0,539.87,327.72Z" style="fill:#263238"></path><path d="M546,331.94c-1.83,2.35-5.58,9.78-5.67,16.53,0,.15.11.23.14.09A78.22,78.22,0,0,1,546.05,332S546,331.91,546,331.94Z" style="fill:#263238"></path><path d="M531.36,326.61c-2.81,1.36-4.5,3.13-6.71,5.28a42.89,42.89,0,0,1-3.41,3.05c-1.1.85-2.71,2.13-4.17,1.32a2.45,2.45,0,0,1-.94-2.33,11.72,11.72,0,0,1,1.07-3.64s-.06-.08-.08,0a17.21,17.21,0,0,0-1.28,3.3,3.92,3.92,0,0,0,.11,2.35c.71,1.56,2.67,1.46,4,.78a12.72,12.72,0,0,0,2.14-1.51c.65-.53,1.27-1.09,1.88-1.67,1.25-1.18,2.43-2.43,3.67-3.63a38.81,38.81,0,0,1,3.83-3.17C531.48,326.66,531.42,326.58,531.36,326.61Z" style="fill:#263238"></path><path d="M526.89,338.05a94,94,0,0,1,4.55-11.38c0-.05,0-.09-.07-.05-2,2.57-4.7,9-5.25,11a16.4,16.4,0,0,0-.81,6.54c.51,3.1,2.66,3.34,3.45,3.37a4.07,4.07,0,0,0,2.56-.87,8.17,8.17,0,0,0,2-2.64s0-.09-.07,0c-.87,1.39-2.45,2.89-4.17,2.95a2.87,2.87,0,0,1-2.08-.72,3.69,3.69,0,0,1-.91-2.41A17.27,17.27,0,0,1,526.89,338.05Z" style="fill:#263238"></path><path d="M572.86,316.3l-9.33,32.48s58.08,3.31,61.3-7.23S600,296.45,588.35,287c-13.49-11-14.21-6.38-9.82,4.62,4.59,11.51,12.51,28,12.51,28Z" style="fill:#3669A7"></path><path d="M589.5,313.89a14.05,14.05,0,0,0,4.25-1.07,24.93,24.93,0,0,0,3.13-1.6l.23-.14c.19-.11.38-.22.55-.34,1.25-.77,2.47-1.62,3.67-2.48,1.41-1,2.8-2,4.23-3a.64.64,0,0,1,.1.13c-1.42,1-2.82,2-4.22,3-1.21.87-2.42,1.71-3.68,2.5l-.36.22-.23.14a27,27,0,0,1-3.34,1.73,14,14,0,0,1-4.32,1.1,9,9,0,0,1-1,0l-.09-.21A10.51,10.51,0,0,0,589.5,313.89Zm-11.24-27.18a13.08,13.08,0,0,0-1.78-1.27c0,.1,0,.2.07.31a11.54,11.54,0,0,1,1.56,1.14,12.79,12.79,0,0,1,2.77,3.39,23.12,23.12,0,0,1,1.77,4c.5,1.39.92,2.82,1.4,4.22a30.73,30.73,0,0,0,1.69,4.12,16.73,16.73,0,0,0,2.52,3.67,16.13,16.13,0,0,0,3.45,2.82,15.63,15.63,0,0,0,4.07,1.81,10.34,10.34,0,0,0,1.1.26l.29,0a14,14,0,0,0,3,.18,21.63,21.63,0,0,0,4.39-.72c1.46-.36,2.9-.81,4.34-1.21l-.09-.12c-1.43.38-2.85.82-4.29,1.19a22.14,22.14,0,0,1-4.36.7,13,13,0,0,1-2.79-.16,1.47,1.47,0,0,1-.29-.05,9.92,9.92,0,0,1-1.29-.28,15.8,15.8,0,0,1-4-1.81,15.43,15.43,0,0,1-3.4-2.79,16.66,16.66,0,0,1-2.48-3.63,29.85,29.85,0,0,1-1.67-4.1c-.48-1.4-.9-2.82-1.39-4.23a23.69,23.69,0,0,0-1.78-4.07,14.47,14.47,0,0,0-1.26-1.86A12.41,12.41,0,0,0,578.26,286.71Zm-3.87,31.85c0,.45,0,.89,0,1.35,0,0,0,.09,0,.14a18.1,18.1,0,0,0,.49,2.93,15.82,15.82,0,0,0,1.66,4.12,15,15,0,0,0,2.8,3.45c2.19,2,4.84,3.44,7.27,5.12a21.34,21.34,0,0,1,3.4,2.81,13.51,13.51,0,0,1,1.73,2.2,1.11,1.11,0,0,1,.17.25,12.83,12.83,0,0,1,.63,1.15,15.47,15.47,0,0,1,1.3,4.21,16.34,16.34,0,0,1,.24,2.79h.19a15.57,15.57,0,0,0-.25-2.82,15.86,15.86,0,0,0-1.33-4.26c-.16-.33-.34-.66-.53-1l-.15-.26a14.56,14.56,0,0,0-1.88-2.39,21.17,21.17,0,0,0-3.44-2.82c-2.44-1.68-5.07-3.1-7.25-5.1a14.57,14.57,0,0,1-2.79-3.42A15.79,15.79,0,0,1,575,323a17.33,17.33,0,0,1-.51-3c0-.06,0-.11,0-.15,0-.41,0-.81,0-1.22a15.83,15.83,0,0,1,.12-1.95l-.07,0A16.31,16.31,0,0,0,574.39,318.56Zm-2.81,13.52a8,8,0,0,0,2.86,3.37,16.54,16.54,0,0,0,4,1.95,84.94,84.94,0,0,0,8.61,2.22c1.43.34,2.87.69,4.28,1.11l.63.2a1.06,1.06,0,0,1,.25.09,23.25,23.25,0,0,1,3.26,1.29,13.59,13.59,0,0,1,3.62,2.47,9.59,9.59,0,0,1,2.35,3.67,2,2,0,0,1,.07.23l.23,0-.09-.28a9.8,9.8,0,0,0-2.41-3.75,14,14,0,0,0-3.68-2.51,25.32,25.32,0,0,0-3.5-1.36l-.27-.08-.41-.12c-1.41-.43-2.86-.78-4.3-1.12a85.74,85.74,0,0,1-8.59-2.19,16.71,16.71,0,0,1-4-1.91,7.7,7.7,0,0,1-2.82-3.32,8.83,8.83,0,0,1-.68-4.31,11.38,11.38,0,0,1,1.34-4.18c.62-1.19,1.36-2.34,2.08-3.48l.08-.12a31.28,31.28,0,0,0,1.71-3h-.07a27.58,27.58,0,0,1-1.65,2.89.77.77,0,0,1-.09.13c-.74,1.17-1.51,2.33-2.16,3.57a11.51,11.51,0,0,0-1.37,4.22A9.13,9.13,0,0,0,571.58,332.08Z" style="fill:#fff"></path><path d="M609.39,324.74a67.06,67.06,0,0,0-9-3.45,65.1,65.1,0,0,0-9.26-2c-1.79-.28-3.58-.48-5.38-.68,0,0-.06.08,0,.09a82.4,82.4,0,0,1,9.34,2q4.59,1.2,9.13,2.56c1.71.51,3.4,1.11,5.1,1.68C609.42,324.89,609.46,324.77,609.39,324.74Z" style="fill:#263238"></path><path d="M573,316.18c.29,0,16.44,2.55,17,2.7-.11-.22-4.2-7.9-4.81-9l-.18-.34c-.36-.48-.73-1-1.08-1.47s-.89-1.28-1.33-1.93c0,0,0,0,0,0L584,308l.63.88c-.41-.8-.81-1.6-1.21-2.41-.64-1.28-1.23-2.58-1.82-3.89,0,0,0-.06.06,0,1.21,2.24,2.48,4.44,3.7,6.67s5.81,10.46,5.78,10.46-17.85-3.16-18.2-3.25A.11.11,0,0,1,573,316.18Z" style="fill:#263238"></path><path d="M575.22,336c1-3.62,2-7.25,3.16-10.84.66-2,1.3-4.07,2-6.11,0-.07.16,0,.14,0-.88,3.68-1.77,7.36-2.82,11s-2,7.24-3.14,10.84q-.93,3.07-2,6.09s-.09,0-.08,0C573.18,343.29,574.19,339.65,575.22,336Z" style="fill:#263238"></path><path d="M562.89,349.37c.4-1,.89-2.47,1.34-3.47.12-.27.31-.25.23,0-.29.92-.49,1.92-.77,2.86.81,0,1.63,0,2.44.07L569,349c1.84.07,3.68.12,5.52.16,3.73.07,7.45.06,11.18,0A217.2,217.2,0,0,0,608,347.52q3.12-.39,6.2-.94a58.27,58.27,0,0,0,6-1.3c.05,0,.08.08,0,.1a34.7,34.7,0,0,1-5.18,1.56c-1.85.4-3.72.75-5.59,1-3.73.57-7.49.95-11.25,1.22-7.46.54-14.95.76-22.43.68-2.09,0-4.19-.07-6.28-.14l-3.18-.13C565.33,349.55,562.82,349.55,562.89,349.37Z" style="fill:#263238"></path><rect x="480.2" y="355.69" width="68.59" height="3.07" style="fill:#c7c7c7"></rect><polygon points="480.2 355.69 480.2 358.76 526.82 358.76 524.47 355.69 480.2 355.69" style="fill:#a6a6a6"></polygon><polygon points="521.51 358.76 454.67 358.76 449.1 313.36 515.95 313.36 521.51 358.76" style="fill:#c7c7c7"></polygon><path d="M489.38,336.06a4,4,0,0,1-4,4.07,4.15,4.15,0,0,1-4.14-4.07,4,4,0,0,1,4-4.07A4.17,4.17,0,0,1,489.38,336.06Z" style="fill:#fff"></path><path d="M567.56,291.78c2.72,0,8.05-5.42,10-9.82.13-.3-.56-3.3-1.23-7-.4-2.24-.8-4.74-1-7.05l-14.19,4.73a36.82,36.82,0,0,1,2.14,8.75,4.36,4.36,0,0,1,0,1,.74.74,0,0,0,0,.15C563.12,284.34,563.31,291.84,567.56,291.78Z" style="fill:#f7a9a0"></path><path d="M563.28,282.36a.63.63,0,0,0,0,.16,9.67,9.67,0,0,0,1.5,0c8.22-.88,9.4-11.08,9.55-14.2l-13.16,4.38a37.14,37.14,0,0,1,2.15,8.75A7.57,7.57,0,0,1,563.28,282.36Z" style="fill:#263238"></path><path d="M573.44,249.84c2.68,4.67,3.34,19.79.5,23.84-4.11,5.87-12.48,8.26-17.89,2.94-5.24-5.15-5.75-24.87-2.43-28.72C558.51,242.23,569.48,242.94,573.44,249.84Z" style="fill:#f7a9a0"></path><path d="M563.49,260.33a11.51,11.51,0,0,1-1.31-.36,2.18,2.18,0,0,1-1.26-.61.69.69,0,0,1,.05-.85,1.72,1.72,0,0,1,1.72-.3,2.48,2.48,0,0,1,1.54,1A.74.74,0,0,1,563.49,260.33Z" style="fill:#263238"></path><path d="M553.22,261.19a12.09,12.09,0,0,0,1.28-.44,2.2,2.2,0,0,0,1.22-.69.7.7,0,0,0-.11-.84,1.73,1.73,0,0,0-1.73-.2,2.52,2.52,0,0,0-1.47,1.08A.74.74,0,0,0,553.22,261.19Z" style="fill:#263238"></path><path d="M563.65,272.19c-.22.26-.44.61-.81.66a2.64,2.64,0,0,1-1.11-.17,0,0,0,0,0,0,.06,1.36,1.36,0,0,0,1.33.45,1.08,1.08,0,0,0,.73-1C563.76,272.17,563.68,272.16,563.65,272.19Z" style="fill:#263238"></path><path d="M562.35,269.23a3.43,3.43,0,0,1-2.19,1.71,4,4,0,0,1-1.24.15,1,1,0,0,1-.24,0l-.23,0a.25.25,0,0,1-.22-.21h0a.41.41,0,0,1,0-.11h0v-.09c-.08-.78-.09-2-.09-2-.28.16-1.69.93-1.69.52a52,52,0,0,1,.55-10.57.1.1,0,0,1,.19,0c.18,3.26-.22,6.54-.09,9.82a6,6,0,0,1,1.6-.62c.11,0,0,2.31,0,2.66a.1.1,0,0,1,0,0,4.8,4.8,0,0,0,3.5-1.38C562.32,269.08,562.41,269.15,562.35,269.23Z" style="fill:#263238"></path><path d="M559.35,270.66a4.1,4.1,0,0,0,1.74,1.15,1.9,1.9,0,0,0,1.13,0c.79-.27.76-1,.56-1.65a4.54,4.54,0,0,0-.44-.95A5.32,5.32,0,0,1,559.35,270.66Z" style="fill:#263238"></path><path d="M561.09,271.81a1.9,1.9,0,0,0,1.13,0c.79-.27.76-1,.56-1.65A1.92,1.92,0,0,0,561.09,271.81Z" style="fill:#ff9abb"></path><path d="M561.36,263s.08,0,.09.08c.07,1,.33,2.15,1.28,2.39,0,0,0,.06,0,.06C561.59,265.47,561.27,264,561.36,263Z" style="fill:#263238"></path><path d="M562.15,261.83c1.6-.3,2.08,2.94.59,3.21S560.8,262.08,562.15,261.83Z" style="fill:#263238"></path><path d="M555.48,263.44s-.08.06-.07.1c.19,1,.23,2.17-.62,2.64a0,0,0,1,0,0,.05C555.89,265.91,555.81,264.35,555.48,263.44Z" style="fill:#263238"></path><path d="M554.42,262.53c-1.63.13-1.26,3.38.25,3.26S555.79,262.43,554.42,262.53Z" style="fill:#263238"></path><path d="M575.76,265h0c-.82.12-2.24-2.6-2.71-2.62a2,2,0,0,1-1.39-.71A78.69,78.69,0,0,0,570,253.4a6,6,0,0,0-6.43-4.07c-2.65.53-3.92,3.14-5.83,3.14s-2.76-1.83-3.92-1.44-2,2.57-2.19,4.41c.24-3.47.91-6.31,2-7.54,4.89-5.67,15.87-5,19.82,1.94C575.07,252.66,575.94,259.3,575.76,265Z" style="fill:#263238"></path><path d="M573,262.38s2.32-5.4,4.7-4.67,1.32,8.08-1,9.53a2.61,2.61,0,0,1-3.71-.66Z" style="fill:#f7a9a0"></path><path d="M577.38,259.81a0,0,0,0,1,0,.06c-1.61,1.08-2.2,2.91-2.5,4.73a1.44,1.44,0,0,1,2-.82s0,.11,0,.11a1.58,1.58,0,0,0-1.61.9,7.29,7.29,0,0,0-.54,1.57c0,.18-.35.15-.33,0v-.05C573.92,264,575,260.53,577.38,259.81Z" style="fill:#263238"></path><path d="M364.1,410.32c.8,2.16,40,50.91,42.69,51.83,1,.35,8.45-4.95,17.25-11.61,1.9-1.43,3.85-2.93,5.83-4.46,12.84-9.92,26.23-20.75,26.23-20.75L430,392.64l-25.51,21.65L398.84,419s-23.36-12-26.4-12.64S363.3,408.15,364.1,410.32Z" style="fill:#f7a9a0"></path><path d="M364.1,410.32c.8,2.16,40,50.91,42.69,51.83,1.24.42,11.95-7.49,23.08-16.07l-25.42-31.79L398.84,419s-23.36-12-26.4-12.64S363.3,408.15,364.1,410.32Z" style="fill:#fff"></path><path d="M364.1,410.32c.8,2.16,40,50.91,42.69,51.83,1,.35,8.45-4.95,17.25-11.61L398.84,419s-23.36-12-26.4-12.64S363.3,408.15,364.1,410.32Z" style="fill:#3669A7"></path><path d="M366.61,409.45c6.78,8,33.35,41,39.44,49.39.05.07,0,.11-.05,0-6.89-7.79-33.2-41-39.52-49.33C366.35,409.38,366.47,409.28,366.61,409.45Z" style="fill:#263238"></path><path d="M376.72,408.12a8.44,8.44,0,0,1,1.93,6.5,8.16,8.16,0,0,1-2.89,5.34c-.05,0-.12-.06-.08-.1a9.74,9.74,0,0,0,.93-11.65C376.57,408.14,376.66,408.06,376.72,408.12Z" style="fill:#263238"></path><path d="M395.48,416.52c2.68,3.23,4.57,8,3.53,12.14,0,.16-.27.1-.3,0A57.82,57.82,0,0,0,395,416.79.27.27,0,0,1,395.48,416.52Z" style="fill:#263238"></path><path d="M392.46,414.79c2.68,3.23,4.58,7.95,3.54,12.14,0,.16-.27.1-.3,0A58.64,58.64,0,0,0,392,415.05.26.26,0,0,1,392.46,414.79Z" style="fill:#263238"></path><path d="M389.45,413.05c2.67,3.24,4.57,8,3.53,12.14,0,.17-.27.11-.3,0A58,58,0,0,0,389,413.32.27.27,0,0,1,389.45,413.05Z" style="fill:#263238"></path><path d="M386.43,411.32c2.68,3.24,4.57,8,3.53,12.14,0,.16-.27.1-.29,0A57.84,57.84,0,0,0,386,411.59.27.27,0,0,1,386.43,411.32Z" style="fill:#263238"></path><path d="M412.14,450.52c2.94,3.67-2.77,8.25-5.72,4.57S409.19,446.83,412.14,450.52Z" style="fill:#fff"></path><path d="M396.78,410.08c-.86,3.6-.13,7.44.13,11.07a.52.52,0,0,0,.74.37.11.11,0,0,0,.18,0,22.05,22.05,0,0,0,6-9.7c.61-2.17.27-5.34-2.44-5.89C398.81,405.44,397.28,408,396.78,410.08Zm2.59-2.33c3.82-2.54,3.67,2.87,3.16,4.45a22.75,22.75,0,0,1-1.25,3,65.7,65.7,0,0,1-3.36,5.74c0-1.78-.19-3.55-.28-5.34C397.54,413.44,397.26,409.15,399.37,407.75Z" style="fill:#263238"></path><path d="M409.26,431.49c1.93-2,.43-4.79-1.29-6.24a22,22,0,0,0-10.39-4.68.11.11,0,0,0-.13.12.53.53,0,0,0-.4.73c1.82,3.15,3.37,6.74,6.1,9.23C404.75,432.11,407.43,433.35,409.26,431.49Zm-8.47-5.86c-.94-1.53-1.79-3.09-2.77-4.58a64.55,64.55,0,0,1,6,2.86,24,24,0,0,1,2.7,1.76c1.31,1,4.47,5.41-.12,5.46C404.08,431.15,401.9,427.45,400.79,425.63Z" style="fill:#263238"></path><path d="M405.81,409.36,433,446.06l91.8-63.7,8.85-6.15s2.51,1.69,6.28,3.78c5.24,2.9,12.92,6.56,19.72,7.56,11.39,1.69,30.42,1.51,40-11.34,8.09-10.81,3.7-24.92,3.7-24.92l-12.52-5.38s-29.61-24.67-48.79-25.41c-8.15-.33-20,5.85-31,12.3S405.81,409.36,405.81,409.36Z" style="fill:#37474f"></path><path d="M533.67,376.21s2.51,1.69,6.28,3.78c6.67-8,20.79-22.49,21.22-23Z" style="fill:#263238"></path><path d="M580,337.66c1.77,1.22,3.48,2.53,5.23,3.79s3.49,2.41,5.12,3.76,3.24,2.85,4.8,4.34c.76.72,1.51,1.44,2.24,2.18a20.25,20.25,0,0,1,2.13,2.31c.05.08-.06.17-.13.13a23.2,23.2,0,0,1-2.37-1.93l-2.48-2.11c-1.59-1.35-3.21-2.67-4.8-4s-3-2.83-4.6-4.19-3.44-2.82-5.17-4.21A0,0,0,1,1,580,337.66Z" style="fill:#263238"></path><path d="M412.2,408c1.77,1.91,3.4,4,5.05,6s3.29,4.05,4.92,6.08c3.26,4.08,6.55,8.14,9.76,12.26,1.76,2.26,3.5,4.54,5.14,6.89.07.11-.09.23-.18.14-3.51-3.86-6.72-8-10-12.05s-6.52-8.17-9.72-12.3c-1.75-2.26-3.55-4.51-5.16-6.87C412,408.06,412.12,408,412.2,408Z" style="fill:#263238"></path><path d="M487.54,408.41c4.57-3.6,9.3-7,14-10.37s9.42-6.73,14.2-10l4.14-2.77c1.39-.91,2.82-1.76,4.18-2.72.07-.05.14.08.07.13-1.24.9-2.42,1.89-3.64,2.82s-2.32,1.77-3.5,2.64c-2.29,1.7-4.61,3.37-6.92,5q-7,5.08-14.19,10c-2.71,1.86-5.4,3.73-8.17,5.49C487.58,408.8,487.38,408.54,487.54,408.41Z" style="fill:#263238"></path><path d="M458.18,370.54c4.22-3.5,8.75-6.64,13.17-9.88s8.93-6.57,13.42-9.82l13.37-9.66c4.32-3.13,8.62-6.3,13.18-9.07,2.5-1.51,5.06-2.91,7.7-4.17a49.77,49.77,0,0,1,7.94-3.25.08.08,0,0,1,.06.14c-2.25,1.25-4.61,2.31-6.89,3.52s-4.47,2.46-6.65,3.78c-4.53,2.75-8.8,5.87-13.1,9-8.92,6.42-17.83,12.86-26.82,19.19-5,3.54-9.95,7.28-15.18,10.53C458.22,370.92,458,370.67,458.18,370.54Z" style="fill:#263238"></path></g><g id="freepik--Cloud--inject-115"><path d="M461.43,221.86a13.89,13.89,0,0,0,12.85,13.85v0h78.65a16.32,16.32,0,0,0,1.53-32.57,27.5,27.5,0,0,0-53.3-8.6,16.13,16.13,0,0,0-7.3-1.73,16.33,16.33,0,0,0-16.29,15.32,12.84,12.84,0,0,0-2.26-.19A13.89,13.89,0,0,0,461.43,221.86Z" style="fill:#3669A7"></path><rect x="508.87" y="218.55" width="20.03" height="17.2" style="fill:#fff"></rect><polygon points="501.99 218.55 535.77 218.55 518.88 201.7 501.99 218.55" style="fill:#fff"></polygon></g></svg>